<?xml version="1.0" standalone="no"?>
<!DOCTYPE svg PUBLIC "-//W3C//DTD SVG 20010904//EN"
 "http://www.w3.org/TR/2001/REC-SVG-20010904/DTD/svg10.dtd">
<svg version="1.0" xmlns="http://www.w3.org/2000/svg"
 width="497.000000pt" height="132.000000pt" viewBox="0 0 497.000000 132.000000"
 preserveAspectRatio="xMidYMid meet">

<g transform="translate(0.000000,132.000000) scale(0.100000,-0.100000)"
fill="#000000" stroke="none">
<path d="M3398 998 c-27 -6 -48 -13 -48 -17 0 -4 14 -12 30 -18 l30 -11 0
-227 0 -226 -32 -14 c-31 -14 -29 -14 62 -14 91 0 93 0 63 14 l-33 14 0 256
c0 198 -3 255 -12 254 -7 -1 -34 -6 -60 -11z"/>
<path d="M815 986 c-76 -33 -115 -104 -100 -182 11 -61 38 -79 140 -93 104
-14 129 -27 145 -75 9 -27 8 -41 -4 -70 -38 -90 -210 -102 -245 -17 -19 45
-31 38 -31 -19 0 -48 1 -49 38 -59 53 -15 131 -13 184 4 118 41 167 163 96
240 -30 32 -42 37 -137 54 -58 10 -107 25 -112 32 -30 46 -21 99 22 140 61 57
159 46 191 -21 16 -34 16 -35 22 -10 13 59 12 62 -24 76 -46 16 -147 17 -185
0z"/>
<path d="M0 980 c0 -5 9 -14 20 -20 19 -10 20 -21 20 -230 0 -214 -1 -219 -22
-234 -12 -9 -20 -18 -17 -20 2 -3 88 -6 189 -7 l185 -2 6 29 c17 74 2 99 -25
45 -9 -16 -29 -34 -47 -40 -47 -16 -174 -14 -188 3 -8 9 -11 79 -9 232 l3 219
33 10 c56 16 35 25 -58 25 -51 0 -90 -4 -90 -10z"/>
<path d="M440 982 c0 -4 15 -12 33 -17 l32 -10 5 -246 c7 -323 2 -346 -62
-335 -26 5 -28 3 -28 -26 0 -30 1 -30 37 -25 42 7 85 44 109 95 13 29 16 71
15 270 0 258 4 282 54 282 14 0 25 5 25 10 0 6 -43 10 -110 10 -60 0 -110 -4
-110 -8z"/>
<path d="M1361 963 c1 -16 5 -39 9 -53 7 -23 8 -23 9 -3 2 49 9 53 87 53 l74
0 -2 -232 -3 -231 -35 -13 c-32 -11 -25 -12 75 -12 100 0 107 1 75 12 l-35 13
-3 232 -2 232 77 -3 78 -3 3 -32 c5 -52 22 -38 22 17 l0 50 -215 0 -215 0 1
-27z"/>
<path d="M4481 972 c-25 -21 -19 -58 11 -68 30 -9 64 27 49 54 -15 28 -37 34
-60 14z"/>
<path d="M4165 823 c-53 -9 -67 -15 -100 -44 -60 -53 -57 -142 7 -175 l29 -15
-30 -35 c-36 -41 -38 -49 -12 -71 19 -16 18 -17 -15 -48 -71 -68 -30 -157 83
-178 46 -9 131 9 171 36 69 46 93 142 47 191 -23 25 -29 26 -123 26 -72 0
-103 4 -111 14 -24 28 13 66 64 66 40 0 92 26 111 55 10 15 19 46 20 69 2 38
4 41 32 44 17 2 33 10 36 18 4 11 -6 14 -47 14 -29 0 -58 5 -64 11 -13 13 -71
26 -98 22z m56 -52 c59 -60 27 -161 -51 -161 -41 0 -74 29 -86 77 -13 50 36
111 89 113 10 0 32 -13 48 -29z m79 -331 c15 -23 12 -83 -6 -108 -41 -59 -148
-73 -203 -26 -26 21 -31 33 -31 68 0 70 29 86 148 83 61 -1 85 -6 92 -17z"/>
<path d="M1831 804 c-118 -61 -120 -260 -2 -321 74 -38 196 -26 214 22 7 18
-6 19 -34 4 -11 -5 -42 -11 -69 -11 -57 -2 -92 23 -116 79 -26 60 -22 63 64
63 74 0 165 21 177 41 8 12 -29 80 -59 108 -35 32 -125 40 -175 15z m106 -10
c28 -8 63 -62 63 -98 l0 -26 -96 0 -96 0 7 38 c12 67 62 102 122 86z"/>
<path d="M2242 807 c-63 -20 -122 -111 -122 -187 1 -41 35 -105 71 -131 59
-42 202 -36 217 10 3 10 -3 11 -29 6 -121 -27 -196 40 -187 168 4 52 9 64 36
88 37 33 77 37 122 14 21 -11 30 -23 30 -40 0 -14 4 -25 9 -25 12 0 21 26 21
61 0 22 -6 32 -26 39 -32 12 -99 11 -142 -3z"/>
<path d="M2513 802 c-58 -16 -68 -29 -25 -34 l27 -3 3 -133 3 -133 -33 -14
c-31 -14 -29 -14 62 -13 52 0 86 3 75 5 -41 10 -45 22 -45 130 0 57 5 113 11
125 17 32 74 51 115 38 19 -7 39 -20 44 -30 6 -10 10 -75 10 -144 l0 -126 68
1 c57 1 63 2 35 10 l-31 9 -4 136 c-3 134 -3 136 -31 159 -51 45 -122 45 -175
0 -38 -32 -42 -31 -42 5 0 17 -3 29 -7 29 -5 -1 -32 -8 -60 -17z"/>
<path d="M3046 810 c-85 -26 -131 -151 -91 -247 31 -73 79 -104 159 -105 61
-1 102 18 144 66 73 83 45 233 -52 277 -43 19 -111 23 -160 9z m131 -31 c31
-26 53 -88 53 -148 0 -106 -33 -151 -110 -151 -76 0 -112 48 -112 151 0 62 27
127 64 154 25 18 79 15 105 -6z"/>
<path d="M3670 798 c-55 -28 -80 -71 -87 -146 -8 -98 47 -176 137 -192 50 -9
113 4 151 30 37 27 69 96 69 151 0 102 -77 179 -180 179 -28 0 -63 -9 -90 -22z
m161 -37 c61 -66 54 -236 -11 -271 -10 -5 -38 -10 -62 -10 -36 0 -50 6 -73 30
-26 27 -30 39 -33 103 -3 60 1 80 20 117 39 76 106 89 159 31z"/>
<path d="M4478 801 c-56 -13 -78 -31 -38 -31 32 0 40 -32 40 -153 0 -119 -4
-130 -45 -140 -11 -2 23 -5 75 -4 52 0 85 2 73 4 -12 2 -26 10 -32 17 -6 7
-12 78 -13 167 l-3 154 -57 -14z"/>
<path d="M4720 798 c-35 -18 -46 -29 -48 -50 -2 -16 1 -28 7 -28 6 0 11 5 11
10 0 24 41 50 79 50 47 0 94 -38 89 -72 -2 -18 -13 -24 -63 -33 -96 -18 -141
-48 -151 -101 -9 -50 2 -82 37 -100 39 -20 84 -13 133 21 45 31 46 31 46 0 0
-24 3 -25 58 -25 52 0 55 1 32 13 -25 12 -25 15 -28 143 -3 130 -3 131 -32
159 -41 39 -109 45 -170 13z m140 -193 c0 -51 -28 -89 -74 -101 -31 -7 -71 16
-81 46 -14 45 52 99 123 100 31 0 32 -1 32 -45z"/>
</g>
</svg>
